<svg width="4071" height="1224" xmlns="http://www.w3.org/2000/svg" xmlns:xlink="http://www.w3.org/1999/xlink" xml:space="preserve" overflow="hidden"><g transform="translate(-212 -619)"><text font-family="Bookman Old Style,Bookman Old Style_MSFontService,sans-serif" font-weight="300" font-size="220" transform="matrix(1 0 0 1 1003.2 1122)">1234.5678901234567890…</text><rect x="1218.5" y="1334.5" width="204" height="205" stroke="#FFFFFF" stroke-width="4.58333" stroke-linejoin="round" stroke-miterlimit="10" fill="#C5CDCE"/><text fill="#FFFFFF" font-family="Bookman Old Style,Bookman Old Style_MSFontService,sans-serif" font-weight="300" font-size="83" transform="matrix(1 0 0 1 1306.82 1466)">.</text><rect x="1013.5" y="1334.5" width="205" height="205" stroke="#FFFFFF" stroke-width="4.58333" stroke-linejoin="round" stroke-miterlimit="10" fill="#6F8183"/><text fill="#FFFFFF" font-family="Bookman Old Style,Bookman Old Style_MSFontService,sans-serif" font-weight="300" font-size="83" transform="matrix(1 0 0 1 1089.91 1466)">1</text><rect x="1627.5" y="1334.5" width="205" height="205" stroke="#FFFFFF" stroke-width="4.58333" stroke-linejoin="round" stroke-miterlimit="10" fill="#6F8183"/><text fill="#FFFFFF" font-family="Bookman Old Style,Bookman Old Style_MSFontService,sans-serif" font-weight="300" font-size="83" transform="matrix(1 0 0 1 1703.71 1466)">3</text><rect x="1422.5" y="1334.5" width="205" height="205" stroke="#FFFFFF" stroke-width="4.58333" stroke-linejoin="round" stroke-miterlimit="10" fill="#6F8183"/><text fill="#FFFFFF" font-family="Bookman Old Style,Bookman Old Style_MSFontService,sans-serif" font-weight="300" font-size="83" transform="matrix(1 0 0 1 1499.1 1466)">2</text><rect x="2036.5" y="1334.5" width="205" height="205" stroke="#FFFFFF" stroke-width="4.58333" stroke-linejoin="round" stroke-miterlimit="10" fill="#6F8183"/><text fill="#FFFFFF" font-family="Bookman Old Style,Bookman Old Style_MSFontService,sans-serif" font-weight="300" font-size="83" transform="matrix(1 0 0 1 2112.91 1466)">5</text><rect x="2650.5" y="1334.5" width="205" height="205" stroke="#FFFFFF" stroke-width="4.58333" stroke-linejoin="round" stroke-miterlimit="10" fill="#A54D74"/><text fill="#FFFFFF" font-family="Bookman Old Style,Bookman Old Style_MSFontService,sans-serif" font-weight="300" font-size="83" transform="matrix(1 0 0 1 2726.71 1466)">3</text><rect x="2445.5" y="1334.5" width="205" height="205" stroke="#FFFFFF" stroke-width="4.58333" stroke-linejoin="round" stroke-miterlimit="10" fill="#C5CDCE"/><text fill="#FFFFFF" font-family="Bookman Old Style,Bookman Old Style_MSFontService,sans-serif" font-weight="300" font-size="50" transform="matrix(1 0 0 1 2478.56 1454)">×</text><text fill="#FFFFFF" font-family="Bookman Old Style,Bookman Old Style_MSFontService,sans-serif" font-weight="300" font-size="50" transform="matrix(1 0 0 1 2508.93 1454)">10**</text><rect x="2241.5" y="1334.5" width="204" height="205" stroke="#FFFFFF" stroke-width="4.58333" stroke-linejoin="round" stroke-miterlimit="10" fill="#6F8183"/><text fill="#FFFFFF" font-family="Bookman Old Style,Bookman Old Style_MSFontService,sans-serif" font-weight="300" font-size="83" transform="matrix(1 0 0 1 2317.5 1466)">6</text><rect x="1832.5" y="1334.5" width="204" height="205" stroke="#FFFFFF" stroke-width="4.58333" stroke-linejoin="round" stroke-miterlimit="10" fill="#6F8183"/><text fill="#FFFFFF" font-family="Bookman Old Style,Bookman Old Style_MSFontService,sans-serif" font-weight="300" font-size="83" transform="matrix(1 0 0 1 1908.31 1466)">4</text><path d="M2449 1558C2449 1588.1 2415.36 1612.5 2373.86 1612.5L1806.14 1612.5C1764.64 1612.5 1731 1636.9 1731 1667 1731 1636.9 1697.36 1612.5 1655.86 1612.5L1088.14 1612.5C1046.64 1612.5 1013 1588.1 1013 1558" stroke="#6F8183" stroke-width="2.29167" stroke-linejoin="round" stroke-miterlimit="10" fill="none" fill-rule="evenodd"/><path d="M2855 1558C2855 1588.1 2832.08 1612.5 2803.8 1612.5L2803.7 1612.5C2775.42 1612.5 2752.5 1636.9 2752.5 1667 2752.5 1636.9 2729.58 1612.5 2701.3 1612.5L2701.2 1612.5C2672.92 1612.5 2650 1588.1 2650 1558" stroke="#6F8183" stroke-width="2.29167" stroke-linejoin="round" stroke-miterlimit="10" fill="none" fill-rule="evenodd"/><text font-family="Bookman Old Style,Bookman Old Style_MSFontService,sans-serif" font-weight="300" font-size="83" transform="matrix(1 0 0 1 1095.7 1762)">Fraction/Significand/Mantissa</text><text font-family="Bookman Old Style,Bookman Old Style_MSFontService,sans-serif" font-weight="300" font-size="83" transform="matrix(1 0 0 1 2556.63 1773)">Exponent</text><path d="M1013.5 919.5C1069.18 919.849 1189.22 925.229 1252.45 919.5 1315.68 913.771 1408.33 910.46 1464.85 919.5 1521.37 928.54 1609.74 917.456 1659.55 919.5 1709.36 921.544 1797.15 910.72 1898.5 919.5 1887.19 1005.92 1886.46 1051.09 1898.5 1163.5 1807.36 1156.08 1760.53 1159.81 1694.95 1163.5 1629.37 1167.19 1571.06 1157.84 1491.4 1163.5 1411.74 1169.16 1350.96 1154.27 1261.3 1163.5 1171.64 1172.73 1107.65 1157.01 1013.5 1163.5 1018.42 1055.29 1025.39 970.409 1013.5 919.5Z" stroke="#2B3334" stroke-width="4.58333" stroke-linecap="square" stroke-linejoin="round" stroke-miterlimit="10" stroke-dasharray="13.75 4.58333" fill="none" fill-rule="evenodd"/><path d="M1013 1163 1013 1334.6" stroke="#6F8183" stroke-width="2.29167" stroke-linejoin="round" stroke-miterlimit="10" fill="none" fill-rule="evenodd"/><path d="M1893 1163 2854.4 1334.6" stroke="#6F8183" stroke-width="2.29167" stroke-linejoin="round" stroke-miterlimit="10" fill="none" fill-rule="evenodd"/><path d="M1908 878C1908 847.901 1941.64 823.5 1983.14 823.5L2905.36 823.5C2946.86 823.5 2980.5 799.1 2980.5 769 2980.5 799.1 3014.14 823.5 3055.64 823.5L3977.86 823.5C4019.36 823.5 4053 847.901 4053 878" stroke="#6F8183" stroke-width="2.29167" stroke-linejoin="round" stroke-miterlimit="10" fill="none" fill-rule="evenodd"/><text font-family="Bookman Old Style,Bookman Old Style_MSFontService,sans-serif" font-weight="300" font-size="83" transform="matrix(1 0 0 1 2580.6 723)">Unrepresented error</text><text font-family="Bookman Old Style,Bookman Old Style_MSFontService,sans-serif" font-weight="300" font-size="83" transform="matrix(1 0 0 1 645.172 1074)">Value</text><text font-family="Bookman Old Style,Bookman Old Style_MSFontService,sans-serif" font-weight="300" font-size="83" transform="matrix(1 0 0 1 261.619 1465)">Representation</text></g></svg>